<svg xmlns="http://www.w3.org/2000/svg">
  <symbol id="dino" viewBox="0 0 256 256">
    <circle fill="var(--icon-sky)" cx="129.5" cy="126.5" r="123.5" />
    <path fill="var(--icon-ground)" d="M129.5 250a123.6 123.6 0 0 0 119-90.4c-2.7 1.1-5.5 2.5-8.4 3.4-8.8 1.1-18.5-14.8-29 0-10.4-16.1-21.4 4.3-32.8 0-11.4 3.1-23.1 4.6-34.8 0-11.7 3.6-23.4 2.1-34.8 0s-22.4-.3-32.8 0-20.2 6.1-29 0c-8.8-.2-16.6-3.4-23.1 0-5.1.2-9.3-1.7-12.7-1.2A123.6 123.6 0 0 0 129.5 250z" />
    <path fill="var(--icon-dino)" d="M125.7 188.5a4.9 4.9 0 0 1-1.3-1.2 10.9 10.9 0 0 1-.8-1.5 5.3 5.3 0 0 1-.4-1.7 11.1 11.1 0 0 1-.2-1.7 31.3 31.3 0 0 1 .4-4.4c.3-1.4.7-2.8 1.1-4.1s.9-2.8 1.4-4.1 1.1-2.7 1.6-4.1V161l-6.2-1.9a18.1 18.1 0 0 1-2.4 2.4l-2.8 1.7-3.1 1.4-3.1 1.5-.4.2-.4.2-.3.3-.2.2-2.6 5.3h-.1a3.7 3.7 0 0 0 .4 1.4l.9 1.5 1.2 1.3 1.1.9v.5l-3.9.3h-8.9l-1.3-.4-.7-1.4-.6-1.2-.4-.9a16.6 16.6 0 0 1-.6-1.6l-.3-1.7c-.1-.6-.1-1.1-.2-1.7s-.1-1.1-.2-1.7h-.9l-6.3 3.4-6.4 3.2-6.4 2.8c-2.2.8-4.5 1.5-6.8 2.1l-2.8.6-4.2.9-4.9 1.4-4.9 1.1-4.2.9-2.7.5a67.6 67.6 0 0 1-7.7 1l-7.8.3h-1.3l-.6-.2a.8.8 0 0 1-.2-.6v-.5l1.4-.2 2.2-.4 2.1-.4 1.4-.3h1.7l-2.6-3.5v-.9l.4.2.5.2.7.7 1.2.9 1.3.9.8.6h1.3l1.1-.4a1.9 1.9 0 0 0 .9-.5.7.7 0 0 0 .2-.8l-3.1-4.4V175l3.9 3.5.5-.5.4-.6.4-.6.5-.6v3.6l.8.8.6-.2 1.2-.6 1.4-.7 1.2-.6a4.4 4.4 0 0 0 1.4-1.3 10.8 10.8 0 0 0 .8-1.9 18 18 0 0 0 .8-2.1 16.2 16.2 0 0 1 1-1.8c.1.1.3.1.3.3a.5.5 0 0 1 .2.4v.8a4.1 4.1 0 0 1-.3 1.6 7.7 7.7 0 0 0-.2 1.5v.2a1 1 0 0 0 .8-.6 3.6 3.6 0 0 0 .4-.9l.3-.9a1.1 1.1 0 0 1 .7-.6 5.4 5.4 0 0 0 2.8.1 4.9 4.9 0 0 0 2.1-.8 5 5 0 0 0 1.5-1.4 6.5 6.5 0 0 0 1-1.5 3.4 3.4 0 0 0 .6-1.2l.3-.5h3.5l5.3-5.2.2-.4.2-.5v-.2a4.7 4.7 0 0 0-.2-1.7 4.7 4.7 0 0 1-.3-1.7v-.3c0-.2.1-.5.1-.7s.2-.5.4-.5h4.4a2.5 2.5 0 0 0 .2-.7 1.7 1.7 0 0 0 .1-.7 1.1 1.1 0 0 0 .1-.5 2.2 2.2 0 0 0 .1-.9 5.9 5.9 0 0 0 .2-1.3 6.6 6.6 0 0 0 .1-1.4 2.8 2.8 0 0 0 .1-.8l6.6-1.4a1.5 1.5 0 0 0 .7-.6l1.2-1.3 1-1.3.6-.7-.6-.6-.6-.4-.4-.6a2.2 2.2 0 0 1-.2-1v-.9a6.8 6.8 0 0 1 .1-1.2 12.8 12.8 0 0 1 .1-1.9c0-.6.1-1.3.1-1.8a7.1 7.1 0 0 1 .2-1.2c0-.1.1-.2.1-.4a2.1 2.1 0 0 1 .4-.6c.1-.3.2-.4.3-.4h4.2v-4.8l.7-.6h10l2.7-3.8a1.8 1.8 0 0 0-.9-.8l-1.2-.4-1.3-.4a1.9 1.9 0 0 1-1-1 5.1 5.1 0 0 1-.2-.9c-.1-.2-.1-.5-.2-.7a1.3 1.3 0 0 0-.1-.6v-.4c0-1.2-.1-2.3-.2-3.4a12.8 12.8 0 0 0-.6-3.2c-.2-.4-.3-.9-.5-1.3l-.6-1.4a6.9 6.9 0 0 1-.5-1.3 5.9 5.9 0 0 1-.2-1.3c0-.3 0-.5.1-.6s.4-.3.8-.3h10.5v-8.8l.4-.3h2.2a17.4 17.4 0 0 1 3.9.5l3.9 1.3 3.7 1.6 3.5 1.5v-.6a2.8 2.8 0 0 0 .1-.9c.1-.4.1-.7.2-1a1.8 1.8 0 0 0 .1-.6 3 3 0 0 0 .3-.9 17.7 17.7 0 0 1 .6-1.7c.2-.6.4-1.3.7-2a11.8 11.8 0 0 1 .7-2 15.4 15.4 0 0 0 .5-1.7 2.3 2.3 0 0 0 .3-.9 4.4 4.4 0 0 1 .1-.9c0-.5.1-1 .1-1.5s.1-1.1.1-1.5.1-.8.2-.9.1-.9.1-1.1.3-.3.7-.3a1.6 1.6 0 0 1 1 .4l1.2.8 1 .9.7.6.9.8 1.5 1.4 1.6 1.4.9.8.9.6 1.5.9 1.5 1 .9.5.5.5h.2a1.7 1.7 0 0 0 1.1-.6l1.4-1.7a19.1 19.1 0 0 0 1.5-2.1l1.7-2.1a9.4 9.4 0 0 1 1.8-1.7 2.7 2.7 0 0 1 1.7-.6 1.8 1.8 0 0 1 1.6.8 10.3 10.3 0 0 1 1.1 2.1 21.7 21.7 0 0 1 .7 2.4 9.1 9.1 0 0 0 .8 1.7h.2a2.8 2.8 0 0 0 1.5-.4l1.4-.9a6.7 6.7 0 0 1 1.4-.9 2.9 2.9 0 0 1 1.6-.4h.9c.2.1.4.2.4.4l2.2 8.8v.2a3.1 3.1 0 0 1-.3 1.3l-.6 1.2.5.2.8.5a2 2 0 0 1 .8.4l.5.2h.5l1.2-1 1.9-1.4 1.8-1.5 1.2-1h.3l.4-.3.4-.3h.3l.4-.3.4-.2.3.2.3.4c.1.1.1.3.2.4v.3h3.3v12.3l.3.2.4.3.5.5 1 .8.9.8.6.5a3.4 3.4 0 0 1 1.2-1.2 5.6 5.6 0 0 1 1.5-1l1.7-.7a5 5 0 0 1 1.7-.2h.5a.6.6 0 0 1 .2.5l.2.4c.4.2.7.3.9.2h.5c.2 0 .3.1.3.2s.1.4.1 1a12.8 12.8 0 0 0 .1 1.9 14.7 14.7 0 0 1 0 2.1 6.2 6.2 0 0 1-.2 1.9 2.8 2.8 0 0 1-.8 1.5l.9 1 1.2 1.2 1.2.9a2.4 2.4 0 0 0 1.3.4h.7l.9-.3 1.5-.6 1.5-.5.9-.4h.2a1.3 1.3 0 0 1 1 .3 1.6 1.6 0 0 1 .6.8 3 3 0 0 1 .4 1c0 .4.1.7.1 1a3.2 3.2 0 0 1-.3 1.4 6.8 6.8 0 0 0-.2 1.5.8.8 0 0 0 .2.4l.6.5.6.4.3.2.5.2.4.2.2-.2c.2-.1.2-.2.2-.2l2.2-1.4.6-.2.3-.2h1.1v3.6l1.1.5.6.3h1.5a2 2 0 0 0 1.1-.3 2 2 0 0 1 1.1-.2.9.9 0 0 1 .7.3 5.6 5.6 0 0 1 .5.8 2.9 2.9 0 0 1 .2.9 1.5 1.5 0 0 1 .1.6l.7.3 1.1.4 1 .4.7.2h.2a2.2 2.2 0 0 0 1.1-.2 1.7 1.7 0 0 1 1-.3.5.5 0 0 1 .5.3c.1.1.1.3.2.5l.3.6c.1.2.4.3.7.4l.8.3 1.4.4 1.7.4 1.8.5 1.4.4.8.3.9.4 1.7.8 2 1 1.5.8.6.3.9.7.8.7a.9.9 0 0 1 .3.5.9.9 0 0 1-.2.9 1.8 1.8 0 0 1-.7.5 1.9 1.9 0 0 1-1 .3h-.8a23.6 23.6 0 0 1-3.7-.2l-3.7-.3-3.6-.3-3.7-.2h-4.9c-1.9 0-3.9.2-6.1.4a50.9 50.9 0 0 0-6.6 1.2 33.3 33.3 0 0 0-6.3 2.1 15.4 15.4 0 0 0-5.2 3.3l-9.6 9.2v.9c0 .2.2.7.3 1.4s.3 1.3.5 2.1a16 16 0 0 1 .5 2.1l.4 1.4a2.4 2.4 0 0 1 1.1 1.3 4.4 4.4 0 0 1 .3 1.5v.7a27.3 27.3 0 0 1-5 .5h-5a9.5 9.5 0 0 0-.4 2.1 12.1 12.1 0 0 0-.1 2 2 2 0 0 0 .2.9l.5.6.5.6a1.9 1.9 0 0 1 .2.8c0 .2-.2.4-.5.5l-1.3.4-1.8.2h-5.8l-1.6-.5a3.8 3.8 0 0 1-1.3-.9 1.9 1.9 0 0 1-.5-1.3v-.7l.2-.4a1.1 1.1 0 0 1 .3-.7l.3-.7c0-.2.1-.3.1-.4a20.2 20.2 0 0 0 .3-3.6c0-1.3.1-2.7.2-4a25.7 25.7 0 0 1 .5-4 8.1 8.1 0 0 1 1.2-3.3h-1.3l-3.4.6-3.2.8-3.3.6-3.5.2-4.2-.2a27.3 27.3 0 0 0-4.1-.3h-.2c-.1.5-.1 1-.2 1.5a9.9 9.9 0 0 1-.2 1.7c-.1.5-.3 1.1-.4 1.6a5.9 5.9 0 0 1-.6 1.4l-1.5 2a19.6 19.6 0 0 0-1.8 2.1l-2 2.1c-.6.8-1.2 1.5-1.7 2.3a10.5 10.5 0 0 0-1.4 2.3 6.4 6.4 0 0 0-.5 2.3 2.9 2.9 0 0 0 .6 1.9c.4.6.8 1 1.2 1.5l1.2 1.5a3.5 3.5 0 0 1 .5 1.8h-7.6z" />
  </symbol>
</svg>
